<?xml version="1.0" encoding="utf-8"?>
<!-- Generator: Adobe Illustrator 24.1.2, SVG Export Plug-In . SVG Version: 6.00 Build 0)  -->
<svg version="1.1" id="Layer_1" xmlns="http://www.w3.org/2000/svg" xmlns:xlink="http://www.w3.org/1999/xlink" x="0px" y="0px"
	 viewBox="0 0 1280 417" style="enable-background:new 0 0 1280 417;" xml:space="preserve">
<style type="text/css">
	.st0{fill:#C62828;}
	.st1{enable-background:new    ;}
</style>
<g>
	<g>
		<g>
			<path class="st0" d="M186.8,380.5c-94.8,0-172-77.2-172-172c0-94.8,77.2-172,172-172s172,77.2,172,172
				C358.8,303.3,281.6,380.5,186.8,380.5z M186.8,50.5c-87.1,0-158,70.9-158,158c0,87.1,70.9,158,158,158s158-70.9,158-158
				C344.8,121.4,273.9,50.5,186.8,50.5z"/>
		</g>
		<path class="st0" d="M91.8,129.5h200l-30,43h-70l-25,55h75l-65,120l20-85h-60l30-65h-85L91.8,129.5z"/>
	</g>
	<g>
		<g class="st1">
			<path d="M424.1,108.1v23.6h40.1v101.8h29V131.7h40.1v-23.6H424.1z"/>
			<path d="M634.8,193.2c8.2-3.6,14.6-8.8,19.1-15.5c4.5-6.7,6.7-14.8,6.7-24.1c0-9.3-2.2-17.4-6.6-24.2
				c-4.4-6.8-10.7-12.1-18.9-15.8c-8.2-3.7-17.8-5.5-28.9-5.5h-54.3v23.6h52.7c0.5,0,1,0,1.5,0c8,0.2,14.1,2.1,18.4,5.6
				c4.5,3.8,6.8,9.2,6.8,16.2c0,6.9-2.3,12.3-6.8,16.1c-4.3,3.6-10.4,5.5-18.4,5.7c-0.5,0-1,0-1.5,0h-52.7v58h29v-34.9h26.7
				l24.2,34.9h31.2L634.8,193.2z"/>
			<path d="M686.4,108.1v125.4h29V108.1H686.4z"/>
			<path d="M809.6,210.9c-7.8,0-14.7-1.7-20.8-5.1c-6.1-3.4-10.8-8.2-14.3-14.2c-3.4-6.1-5.1-13-5.1-20.8c0-7.8,1.7-14.7,5.1-20.8
				c3.4-6.1,8.2-10.8,14.3-14.2c6.1-3.4,13-5.1,20.8-5.1c12.5,0,23,4.9,31.5,14.7l18.6-17.2c-6-7.2-13.3-12.7-22.1-16.5
				c-8.8-3.8-18.6-5.7-29.5-5.7c-12.9,0-24.5,2.8-34.8,8.3c-10.3,5.6-18.5,13.3-24.4,23.1c-5.9,9.9-8.9,21-8.9,33.4
				c0,12.4,3,23.5,8.9,33.4c5.9,9.8,14,17.6,24.4,23.1s21.9,8.3,34.7,8.3c10.9,0,20.7-1.9,29.6-5.7c8.8-3.8,16.2-9.4,22.2-16.7
				l-18.6-17.2C832.7,206,822.2,210.9,809.6,210.9z"/>
			<path d="M999.9,137.6c-6-9.8-14.1-17.6-24.5-23.2c-10.4-5.6-22.1-8.4-35.1-8.4s-24.8,2.8-35.2,8.4c-10.5,5.6-18.6,13.4-24.5,23.2
				c-5.9,9.9-8.9,20.9-8.9,33.2s3,23.4,8.9,33.2c5.9,9.8,14.1,17.6,24.5,23.2c10.5,5.6,22.2,8.4,35.2,8.4s24.7-2.8,35.1-8.4
				c10.4-5.6,18.6-13.3,24.5-23.2c6-9.9,9-20.9,9-33.2S1005.9,147.4,999.9,137.6z M974.4,191.6c-3.4,6.1-8.1,10.8-14.1,14.2
				c-6,3.4-12.7,5.1-20.1,5.1c-7.4,0-14.1-1.7-20.1-5.1c-6-3.4-10.7-8.2-14.1-14.2c-3.4-6.1-5.1-13-5.1-20.8
				c0-7.8,1.7-14.7,5.1-20.8c3.4-6.1,8.1-10.8,14.1-14.2c6-3.4,12.7-5.1,20.1-5.1c7.4,0,14.1,1.7,20.1,5.1c6,3.4,10.7,8.1,14.1,14.2
				c3.4,6.1,5.1,13,5.1,20.8C979.5,178.6,977.8,185.5,974.4,191.6z"/>
			<path d="M1116.5,193.2c8.2-3.6,14.6-8.8,19.1-15.5c4.5-6.7,6.7-14.8,6.7-24.1c0-9.3-2.2-17.4-6.6-24.2s-10.7-12.1-18.9-15.8
				c-8.2-3.7-17.8-5.5-28.9-5.5h-54.3v125.4h29v-34.9h26.7l24.2,34.9h31.2L1116.5,193.2z M1106.1,169.7c-4.5,3.8-11.2,5.7-19.9,5.7
				h-23.6v-43.7h23.6c8.7,0,15.4,1.9,19.9,5.6c4.5,3.8,6.8,9.2,6.8,16.2C1113,160.5,1110.7,165.9,1106.1,169.7z"/>
			<path d="M1262.9,131.4v-23.3h-94.8v22.6 M1168.1,210.2v23.3h97.1v-23.3H1168.1z M1168.1,159.3v21.9h87.1v-22.6"/>
		</g>
		<g class="st1">
			<path class="st0" d="M718.4,268.9c3.2,2.6,4.8,6.2,4.8,10.8c0,4.6-1.6,8.2-4.8,10.9c-3.2,2.6-7.5,3.9-13.1,3.9h-10.6v12.8h-6.1
				v-42.4h16.7C710.9,264.9,715.2,266.2,718.4,268.9z M714,286.8c2-1.6,3-4,3-7.1c0-3.1-1-5.4-3-7.1c-2-1.6-5-2.5-8.8-2.5h-10.4v19
				h10.4C709,289.2,712,288.4,714,286.8z"/>
			<path class="st0" d="M743.4,305c-3.5-1.9-6.2-4.5-8.1-7.8c-2-3.3-3-7-3-11.1c0-4.1,1-7.8,3-11.1c2-3.3,4.7-5.9,8.1-7.8
				s7.3-2.8,11.7-2.8c4.3,0,8.1,0.9,11.6,2.8c3.5,1.9,6.2,4.5,8.1,7.8c2,3.3,2.9,7,2.9,11.1s-1,7.8-2.9,11.1c-2,3.3-4.7,5.9-8.1,7.8
				c-3.5,1.9-7.3,2.8-11.6,2.8C750.7,307.8,746.9,306.9,743.4,305z M763.5,300.3c2.5-1.4,4.5-3.4,5.9-5.8c1.4-2.5,2.2-5.3,2.2-8.3
				c0-3.1-0.7-5.8-2.2-8.3c-1.4-2.5-3.4-4.4-5.9-5.8c-2.5-1.4-5.3-2.1-8.4-2.1c-3.1,0-6,0.7-8.5,2.1c-2.5,1.4-4.5,3.4-6,5.8
				c-1.4,2.5-2.2,5.3-2.2,8.3c0,3.1,0.7,5.8,2.2,8.3c1.4,2.5,3.4,4.4,6,5.8c2.5,1.4,5.4,2.1,8.5,2.1
				C758.2,302.4,761,301.7,763.5,300.3z"/>
			<path class="st0" d="M849,264.9l-14.3,42.4h-6.4l-11.6-33.9l-11.6,33.9h-6.5l-14.3-42.4h6.3l11.5,34.5l12-34.5h5.6l11.8,34.7
				l11.8-34.7H849z"/>
			<path class="st0" d="M890.5,302.1v5.3h-31v-42.4h30.1v5.3h-24v13H887v5.2h-21.4v13.7H890.5z"/>
			<path class="st0" d="M932,307.4l-9.2-13c-1.1,0.1-2,0.1-2.7,0.1h-10.6v12.9h-6.1v-42.4h16.7c5.5,0,9.9,1.3,13.1,3.9
				c3.2,2.6,4.8,6.2,4.8,10.8c0,3.3-0.8,6.1-2.4,8.4c-1.6,2.3-3.9,4-7,5l10.1,14.2H932z M928.7,286.8c2-1.7,3-4,3-7.1
				c0-3.1-1-5.4-3-7.1c-2-1.6-5-2.5-8.8-2.5h-10.4v19.1h10.4C923.8,289.3,926.7,288.5,928.7,286.8z"/>
			<path class="st0" d="M973.4,306.4c-3-1-5.3-2.3-7-3.8l2.3-4.7c1.6,1.5,3.7,2.6,6.3,3.5c2.5,0.9,5.2,1.4,7.8,1.4
				c3.5,0,6.2-0.6,7.9-1.8c1.7-1.2,2.6-2.8,2.6-4.8c0-1.5-0.5-2.6-1.4-3.5c-1-0.9-2.1-1.6-3.5-2.1c-1.4-0.5-3.4-1-5.9-1.6
				c-3.2-0.8-5.8-1.5-7.8-2.3c-2-0.8-3.7-1.9-5.1-3.5s-2.1-3.7-2.1-6.5c0-2.3,0.6-4.3,1.8-6.1c1.2-1.8,3-3.3,5.5-4.4
				c2.4-1.1,5.5-1.6,9.1-1.6c2.5,0,5,0.3,7.4,1c2.4,0.6,4.5,1.6,6.3,2.8l-2,4.8c-1.8-1.1-3.7-2-5.7-2.6c-2-0.6-4-0.9-6-0.9
				c-3.5,0-6,0.6-7.8,1.9c-1.7,1.3-2.6,2.9-2.6,4.8c0,1.5,0.5,2.6,1.5,3.5c1,0.9,2.2,1.6,3.6,2.1c1.4,0.5,3.4,1,5.9,1.6
				c3.2,0.8,5.8,1.5,7.7,2.3c2,0.8,3.6,1.9,5,3.5c1.4,1.6,2.1,3.7,2.1,6.4c0,2.2-0.6,4.3-1.8,6.1c-1.2,1.8-3.1,3.3-5.6,4.4
				c-2.5,1.1-5.5,1.6-9.1,1.6C979.5,307.8,976.4,307.3,973.4,306.4z"/>
			<path class="st0" d="M1026.6,292.7v14.7h-6v-14.8l-17-27.6h6.5l13.7,22.4l13.7-22.4h6L1026.6,292.7z"/>
			<path class="st0" d="M1055,306.4c-3-1-5.3-2.3-7-3.8l2.3-4.7c1.6,1.5,3.7,2.6,6.3,3.5c2.5,0.9,5.2,1.4,7.8,1.4
				c3.5,0,6.2-0.6,7.9-1.8c1.7-1.2,2.6-2.8,2.6-4.8c0-1.5-0.5-2.6-1.4-3.5c-1-0.9-2.1-1.6-3.5-2.1c-1.4-0.5-3.4-1-5.9-1.6
				c-3.2-0.8-5.8-1.5-7.8-2.3c-2-0.8-3.7-1.9-5.1-3.5c-1.4-1.6-2.1-3.7-2.1-6.5c0-2.3,0.6-4.3,1.8-6.1c1.2-1.8,3-3.3,5.5-4.4
				c2.4-1.1,5.5-1.6,9.1-1.6c2.5,0,5,0.3,7.4,1c2.4,0.6,4.5,1.6,6.3,2.8l-2,4.8c-1.8-1.1-3.7-2-5.7-2.6c-2-0.6-4-0.9-6-0.9
				c-3.5,0-6,0.6-7.8,1.9c-1.7,1.3-2.6,2.9-2.6,4.8c0,1.5,0.5,2.6,1.5,3.5c1,0.9,2.2,1.6,3.6,2.1c1.4,0.5,3.4,1,5.9,1.6
				c3.2,0.8,5.8,1.5,7.7,2.3c2,0.8,3.6,1.9,5,3.5c1.4,1.6,2.1,3.7,2.1,6.4c0,2.2-0.6,4.3-1.8,6.1c-1.2,1.8-3.1,3.3-5.5,4.4
				c-2.5,1.1-5.5,1.6-9.1,1.6C1061.1,307.8,1058,307.3,1055,306.4z"/>
			<path class="st0" d="M1100.7,270.2H1086v-5.3h35.3v5.3h-14.6v37.2h-6V270.2z"/>
			<path class="st0" d="M1162,302.1v5.3h-31v-42.4h30.1v5.3h-24v13h21.4v5.2h-21.4v13.7H1162z"/>
			<path class="st0" d="M1214.5,307.4l-0.1-30.9l-15.4,25.8h-2.8l-15.4-25.6v30.7h-5.9v-42.4h5l17.8,29.8l17.6-29.8h5l0.1,42.4
				H1214.5z"/>
			<path class="st0" d="M1239.4,306.4c-3-1-5.3-2.3-7-3.8l2.3-4.7c1.6,1.5,3.7,2.6,6.3,3.5c2.5,0.9,5.2,1.4,7.8,1.4
				c3.5,0,6.2-0.6,7.9-1.8c1.7-1.2,2.6-2.8,2.6-4.8c0-1.5-0.5-2.6-1.4-3.5c-1-0.9-2.1-1.6-3.5-2.1c-1.4-0.5-3.4-1-5.9-1.6
				c-3.2-0.8-5.8-1.5-7.8-2.3s-3.7-1.9-5.1-3.5c-1.4-1.6-2.1-3.7-2.1-6.5c0-2.3,0.6-4.3,1.8-6.1c1.2-1.8,3-3.3,5.5-4.4
				c2.4-1.1,5.5-1.6,9.1-1.6c2.5,0,5,0.3,7.4,1c2.4,0.6,4.5,1.6,6.3,2.8l-2,4.8c-1.8-1.1-3.7-2-5.7-2.6c-2-0.6-4-0.9-6-0.9
				c-3.5,0-6,0.6-7.8,1.9c-1.7,1.3-2.6,2.9-2.6,4.8c0,1.5,0.5,2.6,1.5,3.5c1,0.9,2.2,1.6,3.6,2.1c1.4,0.5,3.4,1,5.9,1.6
				c3.2,0.8,5.8,1.5,7.7,2.3c2,0.8,3.6,1.9,5,3.5c1.4,1.6,2.1,3.7,2.1,6.4c0,2.2-0.6,4.3-1.8,6.1c-1.2,1.8-3.1,3.3-5.5,4.4
				c-2.5,1.1-5.5,1.6-9.1,1.6C1245.5,307.8,1242.4,307.3,1239.4,306.4z"/>
		</g>
	</g>
	<path d="M606,106.7L606,106.7c-0.5,0-1,0-1.5,0H606z"/>
	<path d="M604.5,150.5c0.5,0,1,0,1.5,0v0H604.5z"/>
</g>
</svg>
